<?xml version="1.0" encoding="UTF-8" standalone="no"?>
<svg width="20px" height="16px" viewBox="0 0 20 16" version="1.1" xmlns="http://www.w3.org/2000/svg" xmlns:xlink="http://www.w3.org/1999/xlink" xmlns:sketch="http://www.bohemiancoding.com/sketch/ns">
    <title>Slice 1</title>
    <description>Created with Sketch (http://www.bohemiancoding.com/sketch)</description>
    <defs>
        <path d="M0.125260963,18.7098121 L20.125261,18.7098121 L20.125261,-1.29018789 L0.125260963,-1.29018789 L0.125260963,18.7098121 L0.125260963,18.7098121 Z M0.125260963,18.7098121" id="path-1"></path>
        <mask id="mask-2">
            <use xlink:href="#path-1" fill="white"></use>
        </mask>
        <path d="M20.125261,18.7098121 L20.125261,-1.29018789 L0.125260963,-1.29018789 L0.125260963,18.7098121 L20.125261,18.7098121 Z M20.125261,18.7098121" id="path-3"></path>
        <mask id="mask-4">
            <use xlink:href="#path-3" fill="white"></use>
        </mask>
    </defs>
    <g id="Page 1" fill="#D8D8D8" fill-rule="evenodd">
        <g id="svg3004" fill="#000000">
            <g id="g3012" transform="translate(10.500000, 8.750000) scale(1, -1) translate(-10.500000, -8.750000)">
                <g id="g3018" stroke="rgb(0,0,0)" stroke-width="1.25">
                    <g id="g3020">
                        <use id="path3024" xlink:href="#path-1" fill=""></use>
                        <g id="g3026" mask="url(#mask-2)">
                            <path d="M11.221511,3.43606211 L0.304010963,3.43606211 L0.304010963,6.03231211 L5.75151096,12.3123121 L2.98401096,12.3123121 L2.98401096,10.9060621 L0.446510963,10.9060621 L0.446510963,14.8035621 L11.180261,14.8035621 L11.180261,12.4985621 L5.45651096,5.92981211 L8.64651096,5.92981211 L8.64651096,7.48106211 L11.221511,7.48106211 L11.221511,3.43606211 L11.221511,3.43606211 Z M11.221511,3.43606211" id="path3028" stroke-width="0.5" fill="#D70014"></path>
                        </g>
                    </g>
                </g>
                <g id="g3034" stroke="rgb(0,0,0)" stroke-width="1.25">
                    <g id="g3036">
                        <use id="path3040" xlink:href="#path-3" fill=""></use>
                        <g id="g3042" mask="url(#mask-4)">
                            <path d="M19.726136,0.702312112 L11.453636,0.702312112 L11.453636,2.53231211 L15.583636,6.95606211 L13.483636,6.95606211 L13.483636,5.96356211 L11.562386,5.96356211 L11.562386,8.70981211 L19.696136,8.70981211 L19.696136,7.08606211 L15.357386,2.45856211 L17.773636,2.45856211 L17.773636,3.55231211 L19.726136,3.55231211 L19.726136,0.702312112 L19.726136,0.702312112 Z M19.726136,0.702312112" id="path3044" stroke-width="0.5" fill="#D70014"></path>
                        </g>
                    </g>
                </g>
            </g>
        </g>
    </g>
</svg>